<svg xmlns="http://www.w3.org/2000/svg" viewBox="0 0 16 16" shape-rendering="crispEdges">
  <rect width="16" height="16" fill="#FAF6EE"/>
  <g fill="#3F7A3F">
    <rect x="9" y="1" width="3" height="1"/>
    <rect x="8" y="2" width="4" height="1"/>
    <rect x="9" y="3" width="2" height="1"/>
  </g>
  <rect x="7" y="3" width="1" height="2" fill="#6B3E2B"/>
  <g fill="#FF6B47">
    <rect x="4" y="4" width="7" height="1"/>
    <rect x="3" y="5" width="9" height="1"/>
    <rect x="2" y="6" width="11" height="1"/>
    <rect x="2" y="7" width="11" height="1"/>
    <rect x="2" y="8" width="11" height="1"/>
    <rect x="2" y="9" width="11" height="1"/>
    <rect x="2" y="10" width="11" height="1"/>
    <rect x="3" y="11" width="9" height="1"/>
    <rect x="4" y="12" width="7" height="1"/>
    <rect x="5" y="13" width="5" height="1"/>
  </g>
  <g fill="#FF9171">
    <rect x="3" y="6" width="2" height="1"/>
    <rect x="2" y="7" width="2" height="1"/>
    <rect x="2" y="8" width="1" height="1"/>
  </g>
  <g fill="#E85734">
    <rect x="7" y="4" width="1" height="1"/>
    <rect x="7" y="6" width="1" height="4"/>
    <rect x="11" y="9" width="1" height="1"/>
    <rect x="10" y="11" width="1" height="1"/>
  </g>
</svg>
